<svg version="1.2" xmlns="http://www.w3.org/2000/svg" viewBox="0 0 47 48" width="47" height="48"><style>.a{fill:#a29061}</style><path fill-rule="evenodd" class="a" d="m23.5 0.5c13 0 23.5 10.5 23.5 23.5 0 13-10.5 23.5-23.5 23.5-6.3 0-12.2-2.4-16.6-6.9-4.5-4.4-6.9-10.3-6.9-16.6 0-5.4 1.9-10.6 5.2-14.8 0.3-0.3 0.7-0.3 1-0.1 0.3 0.3 0.3 0.7 0.1 1-3.2 3.9-4.9 8.8-4.9 13.9 0 12.2 9.9 22.1 22.1 22.1 12.2 0 22.1-9.9 22.1-22.1 0-12.2-9.9-22.1-22.1-22.1-5.6 0-11 2.1-15.1 5.9-0.3 0.3-0.7 0.3-1 0-0.2-0.3-0.2-0.7 0.1-1 4.3-4.1 10-6.3 16-6.3q0 0 0 0zm13 26.1c3 2.1 3 6.5 0.1 8.5-9.6 6.7-19.9 4.2-22.9 2.9-3.4-1.3-5.5-4.6-5.5-8.2 0-2.4 1-4.6 2.7-6.3 3.4-3.3 8.6-3.2 11.9-0.4 2.2 1.9 4.9 2.9 7.7 2.9 1.7 0 2.1-0.3 3.1-0.3 1.1 0 2.1 0.3 2.9 0.9q0 0 0 0zm-24.6-2.1c-1.5 1.4-2.3 3.3-2.3 5.3q0 0.6 0.1 1.2l8.6-8.5q-0.6-0.1-1.1-0.1c-2 0-3.9 0.7-5.3 2.1zm-1.8 8.1c0.5 1.2 1.2 2.2 2.2 3l10.6-10.6c-1.1-0.8-1.6-1.5-3.1-2.1zm3.4 3.8c1.1 0.6 2.7 1 3.9 1.3l10.6-10.5q-2.1-0.4-3.9-1.4zm5.7 1.5c1.6 0.2 3.3 0.3 5.1 0.2l10.7-10.8c-1.7-0.6-2.3 0.2-5.3 0zm16.7-3.9c2-1.4 2.2-4.3 0.4-5.9l-9.8 9.7q5.1-0.8 9.4-3.8zm-29.3-8.8q-0.1-0.6-0.1-1.2c0-4.4 1.7-8.6 4.8-11.8-0.2-0.6-0.3-1.2-0.1-1.8 0.3-0.8 0.8-1.4 1.5-1.8 0-1.3 0.8-2.5 2.1-2.9 0.6-0.2 1.3-0.2 1.8-0.1 0.4-0.8 1.2-1.5 2.1-1.8 1.6-0.5 3.2 0.2 4 1.5q0.9-0.1 1.6 0.1c0.8-1.3 2.3-2 3.9-1.6 1.5 0.3 2.6 1.7 2.7 3.3 0.8 0.3 1.5 1 1.9 1.9q0.1 0.4 0.2 0.7c2.1 1.4 3.9 3.3 5.3 5.6h3.2c0.7 0 1.2 0.5 1.2 1.2v1.5c0 0.6-0.5 1.2-1.2 1.2h-0.4v1.3c0 0.5-0.3 0.9-0.6 1.1q0.2 1.2 0.2 2.4 0 1.4-0.3 2.8c0.8 1.3 1.2 2.7 1.2 4.1 0 2.6-1.3 5-3.4 6.4q-0.8 0.6-1.7 1.1c-0.3 0.2-0.7 0.1-0.9-0.2-0.2-0.3-0.1-0.8 0.2-1q0.9-0.4 1.6-1c4.5-3.1 3.4-10.1-1.9-11.6-2-0.5-2.7 0-4.6 0.1-4.5 0.1-7-2.5-7.7-3.1-2-1.4-4.5-2.1-6.9-1.9-5.1 0.6-9.3 4.7-9.3 10.1 0 4.2 2.5 7.9 6.3 9.5 5.5 2.1 13.2 2.3 19.8-0.6 0.3-0.2 0.7 0 0.9 0.3 0.1 0.4 0 0.8-0.4 0.9-6.9 3.1-15 2.9-20.8 0.6-4.1-1.5-7.2-5.7-7.2-10.7 0-1.5 0.3-3.1 1-4.6zm33.1-6h-9.2v1.2h9.2zm1.6-2.6h-9.1v1.2c1 0 8.1 0 9.1 0zm-4.7-1.4c-1-1.5-2.3-2.8-3.8-3.9q-0.2 0.6-0.6 1l-2.5 3.1c-0.5 0.6-1.2 1-2 1h-0.3c-1 1.2-2.8 1.5-4 0.5-1.3 0.9-3 0.7-4-0.5-0.9 0-2.6 0-3.4 0.1-0.7 0-1.4-0.3-1.8-0.8-1.2-1.3-1.8-2-2.2-2.3-2.4 2.6-3.8 5.9-4.1 9.5 2-2.6 4.8-4.2 7.9-4.5 3-0.4 6 0.4 8.6 2.4 2.3 1.9 4.4 2.8 7.5 2.4 0.6-0.1 1.9-0.4 3.7 0 1.4 0.4 2.7 1.1 3.7 2.1q0-0.7 0-1.3 0-1.1-0.2-2.2h-8.7c-0.7 0-1.3-0.6-1.3-1.3v-1.4c0-0.7 0.6-1.3 1.3-1.3h0.4v-1.3c0-0.7 0.5-1.3 1.2-1.3zm-13.4-0.8c-0.1-0.8-0.8-1.4-1.6-1.4-0.8 0-1.5 0.7-1.5 1.6 0 0.8 0.7 1.5 1.5 1.5 1 0 1.7-0.8 1.6-1.7zm2.8-1.1c-0.5-0.4-1.2-0.4-1.7-0.1 0.4 0.9 0.4 1.9 0 2.7 0.6 0.4 1.5 0.3 2-0.3 0.6-0.7 0.5-1.8-0.3-2.3q0 0 0 0zm-0.6-6.9c-0.1 0.3-0.4 0.5-0.7 0.6 0.3 0.4 0.5 0.9 0.5 1.4 0.7 0.3 1.3 0.9 1.6 1.6 0.2 0.7 0.3 1.5 0 2.2 0.9 0.6 1.4 1.7 1.2 2.7 0.5-0.1 0.5-0.2 3.2-3.5 0.4-0.5 0.5-1.3 0.3-1.9-0.3-0.7-0.8-1.1-1.5-1.2-0.4-0.1-0.6-0.4-0.5-0.8 0.1-1.1-0.6-2.1-1.6-2.4-1.1-0.3-2.2 0.3-2.5 1.3zm-6.3-1.3c-0.6 0.2-1 0.6-1.3 1.2q0.3 0.3 0.5 0.6c0.4-0.1 0.8-0.1 1.3 0.1 0.3-0.6 0.9-1.1 1.6-1.4-0.5-0.5-1.3-0.7-2.1-0.5zm-6.6 5.7c-0.1 0.5 0 0.9 0.3 1.3 0.1 0.1 0.2 0.3 2.4 2.7 0.2 0.2 0.5 0.3 0.8 0.3h2.7c-0.3-1.8 1.1-3.5 2.9-3.5 0.7 0 1.3 0.2 1.8 0.6 0.6-0.5 1.4-0.7 2.1-0.6 0.3-0.8-0.2-1.8-1.1-2-0.4-0.1-0.7-0.4-0.6-0.8 0.1-0.8-0.4-1.7-1.3-1.9-0.8-0.2-1.6 0.3-1.9 1.1-0.2 0.4-0.6 0.6-1 0.5-0.2-0.1-0.6-0.4-1.4-0.2-0.3 0.1-0.8-0.1-0.9-0.4-0.4-0.8-1.2-1.2-2-0.9-0.9 0.2-1.4 1.1-1.2 1.9 0.1 0.4-0.1 0.8-0.5 0.8-0.5 0.2-0.9 0.6-1.1 1.1z"/></svg>