<svg version="1.2" xmlns="http://www.w3.org/2000/svg" viewBox="0 0 47 47" width="47" height="47"><style>.a{fill:#a39263}</style><path fill-rule="evenodd" class="a" d="m40 6.9c4.5 4.4 6.9 10.3 6.9 16.6 0 6.2-2.4 12.1-6.9 16.5-4.4 4.5-10.3 6.9-16.5 6.9-6.3 0-12.2-2.4-16.6-6.9-4.5-4.4-6.9-10.3-6.9-16.5 0-6.3 2.4-12.2 6.9-16.6 4.4-4.5 10.3-6.9 16.6-6.9 6.2 0 12.1 2.4 16.5 6.9zm-0.9 32.2c4.1-4.2 6.4-9.7 6.4-15.6 0-5.9-2.3-11.5-6.4-15.7-4.2-4.1-9.7-6.4-15.6-6.4-5.9 0-11.5 2.3-15.7 6.4-4.1 4.2-6.4 9.8-6.4 15.7 0 5.9 2.3 11.4 6.4 15.6 4.2 4.1 9.8 6.4 15.7 6.4 5.9 0 11.4-2.3 15.6-6.4zm-8.3 1.7c0.3-0.1 0.8 0.1 0.9 0.4 0.1 0.4 0 0.8-0.4 0.9-2.5 1.1-5.1 1.6-7.8 1.6-5.4 0-10.5-2.1-14.4-5.9-3.8-3.9-5.9-8.9-5.9-14.3 0-6.9 3.4-13.2 9.1-16.9 0.3-0.2 0.8-0.2 1 0.2 0.2 0.3 0.1 0.7-0.2 0.9q-1.3 0.9-2.5 1.9l1.7 1.7c0.3 0.3 0.3 0.8 0 1q-0.2 0.2-0.5 0.2-0.2 0-0.5-0.2l-1.7-1.7c-3 3.3-4.8 7.6-5 12.2h2.4c0.4 0 0.7 0.3 0.7 0.7 0 0.3-0.3 0.6-0.7 0.6h-2.4c0.2 4.7 2.1 9 5.1 12.2l1.6-1.7c0.3-0.3 0.8-0.3 1 0 0.3 0.3 0.3 0.7 0 1l-1.7 1.7c3.2 3 7.5 4.8 12.2 5v-2.4c0-0.4 0.3-0.7 0.7-0.7 0.3 0 0.6 0.3 0.6 0.7v2.4q3.5-0.1 6.7-1.5zm7-31.7c3.8 3.9 5.9 9 5.9 14.4 0 3.5-0.9 7-2.7 10-1.7 3-4.1 5.5-7 7.3q-0.2 0.1-0.4 0.1c-0.2 0-0.5-0.2-0.6-0.4-0.2-0.3-0.1-0.7 0.2-0.9q1.7-1 3.1-2.3l-1.7-1.7c-0.3-0.3-0.3-0.7 0-1 0.3-0.3 0.7-0.3 1 0l1.7 1.7q1.4-1.6 2.5-3.5c1.5-2.6 2.4-5.6 2.5-8.7h-2.4c-0.4 0-0.7-0.3-0.7-0.6 0-0.4 0.3-0.7 0.7-0.7h2.4c-0.2-4.7-2-9-5-12.2l-1.7 1.7q-0.2 0.2-0.5 0.2-0.3 0-0.5-0.2c-0.3-0.2-0.3-0.7 0-1l1.7-1.6c-3.2-3-7.5-4.9-12.2-5.1v2.4c0 0.4-0.3 0.7-0.6 0.7-0.4 0-0.7-0.3-0.7-0.7v-2.4q-3.9 0.1-7.4 1.8c-0.3 0.2-0.7 0-0.9-0.3-0.2-0.4 0-0.8 0.3-0.9 2.7-1.3 5.6-2 8.7-2 5.4 0 10.4 2.1 14.3 5.9zm-6.5 5.3c0.3-0.3 0.7-0.3 1 0 0.2 0.2 0.2 0.7 0 1l-7 6.9q0.2 0.4 0.2 0.9c0 1.1-0.9 2.1-2 2.1-1.2 0-2.1-1-2.1-2.1q0-0.5 0.2-0.9l-3.8-3.8c-0.2-0.2-0.2-0.7 0-0.9 0.3-0.3 0.7-0.3 1 0l3.8 3.7q0.4-0.2 0.9-0.2 0.4 0 0.8 0.2zm-7.8 9.5c0.4 0 0.7-0.3 0.7-0.7 0-0.3-0.3-0.6-0.7-0.6-0.4 0-0.7 0.3-0.7 0.6 0 0.4 0.3 0.7 0.7 0.7zm-2.4 7.5c-0.4 0-0.7-0.3-0.7-0.7 0-0.3 0.3-0.6 0.7-0.6h4.8c0.4 0 0.7 0.3 0.7 0.6 0 0.4-0.3 0.7-0.7 0.7z"/></svg>